<svg version="1.1" id="Layer_1" xmlns="http://www.w3.org/2000/svg" xmlns:xlink="http://www.w3.org/1999/xlink" x="0px" y="0px"
	 width="100%" viewBox="0 0 300 150" enable-background="new 0 0 300 150" xml:space="preserve">
<path fill="#FBFBFB" opacity="1.000000" stroke="none" 
	d="
M232.000000,151.000000 
	C154.666672,151.000000 77.833351,151.000000 1.000021,151.000000 
	C1.000014,101.000015 1.000014,51.000031 1.000007,1.000034 
	C100.999969,1.000023 200.999939,1.000023 300.999939,1.000011 
	C300.999939,50.999969 300.999939,100.999939 300.999969,150.999954 
	C278.166656,151.000000 255.333328,151.000000 232.000000,151.000000 
M262.691467,101.729797 
	C270.252502,100.232506 276.054321,96.049355 280.765442,90.086243 
	C282.694550,87.644470 282.837219,85.768425 279.982941,84.220116 
	C277.018188,86.383720 274.266235,88.392044 270.641876,91.037048 
	C272.242096,84.067406 270.556122,79.096756 266.403992,74.953026 
	C262.603912,71.160660 259.809387,67.643181 265.156372,62.558407 
	C266.284576,61.485527 265.068787,57.405506 264.104401,55.050365 
	C263.859070,54.451237 260.217407,54.647774 258.533966,55.385818 
	C256.507690,56.274158 254.684097,57.928337 253.157455,59.601906 
	C245.075912,68.461403 237.175674,77.486549 229.074844,86.328064 
	C226.728241,88.889221 224.031525,91.171219 221.264938,93.278793 
	C220.503937,93.858505 218.755936,93.666214 217.770096,93.189125 
	C217.328629,92.975479 217.351044,91.077980 217.692291,90.136490 
	C218.251328,88.594170 219.169479,87.161812 220.062805,85.764000 
	C228.939392,71.874718 237.848495,58.006207 246.727463,44.118435 
	C247.641068,42.689453 248.418732,41.173553 249.548508,39.190697 
	C247.271729,39.190697 245.913925,39.367451 244.617966,39.159206 
	C239.763031,38.379089 236.756149,40.218834 234.225327,44.570248 
	C229.800186,52.178619 224.642715,59.361046 219.734222,66.809830 
	C214.848129,58.556377 207.475708,56.422806 199.008972,61.709114 
	C192.844009,65.558281 187.548691,70.776466 181.678711,75.132355 
	C178.913132,77.184586 175.867355,79.074112 172.661316,80.262405 
	C168.818192,81.686852 165.386581,79.088219 165.686966,75.046288 
	C165.875610,72.508270 167.254318,70.058701 168.099106,67.569450 
	C168.577576,67.556099 169.056061,67.542755 169.534531,67.529404 
	C169.761261,72.115395 171.816772,74.768593 176.345642,74.137924 
	C180.626556,73.541794 182.916168,70.439774 182.783051,66.489502 
	C182.705826,64.197868 181.146027,60.630566 179.410980,60.016136 
	C176.451385,58.968052 172.568573,59.026321 169.558868,60.048595 
	C166.635498,61.041546 164.322083,63.830265 161.657654,65.894844 
	C160.030045,57.423149 155.268036,55.061684 147.782516,59.184334 
	C144.918060,60.761929 142.390518,63.064404 139.989883,65.333290 
	C138.237686,66.989319 136.944550,69.131058 134.731613,71.975533 
	C133.888596,68.274864 133.714386,66.437668 133.039459,64.807808 
	C132.110291,62.564026 132.063599,58.916626 128.122131,59.977180 
	C124.810936,60.868145 123.769066,62.793076 124.531097,66.719505 
	C126.295830,75.812408 123.911377,83.975189 116.234444,89.834503 
	C113.091255,92.233505 109.406555,93.719383 105.610451,91.128906 
	C101.773926,88.510841 101.458244,84.117546 103.198433,80.814285 
	C105.668663,76.125267 109.256996,71.891983 112.967278,68.041901 
	C115.035576,65.895668 118.318398,64.919853 120.982597,63.455776 
	C120.668320,59.079700 118.312675,58.415150 114.745338,59.212040 
	C105.387436,61.302464 98.597237,66.709801 93.770828,74.862038 
	C90.020996,81.195831 86.151421,87.458733 81.886955,94.492226 
	C82.018341,94.663719 82.973656,95.910606 84.195602,97.505501 
	C86.906776,95.266830 89.287384,93.301117 90.607964,92.210693 
	C94.907951,95.565659 98.955795,98.723892 103.001022,102.542793 
	C102.995514,103.203430 102.990013,103.864059 102.074142,104.749046 
	C78.262138,104.758545 54.450123,104.759171 30.638130,104.782661 
	C22.980259,104.790215 20.765303,106.970100 20.743618,114.471352 
	C20.721956,121.964607 20.737209,129.457962 20.739761,136.951279 
	C20.743082,146.692856 22.359091,148.331009 31.994387,148.331192 
	C111.756569,148.332748 191.518753,148.332092 271.280945,148.331497 
	C272.446533,148.331497 273.615173,148.376083 274.777222,148.309677 
	C279.957855,148.013672 282.245117,145.673279 282.277679,140.424103 
	C282.334473,131.265930 282.324127,122.107063 282.284271,112.948738 
	C282.259277,107.214874 279.924957,104.932846 274.075806,104.783127 
	C270.090515,104.681122 266.104462,104.608833 262.064728,103.695122 
	C262.043396,103.142319 262.022064,102.589523 262.691467,101.729797 
M64.181244,41.961521 
	C56.774853,41.786877 53.601192,36.945278 57.756218,30.929640 
	C60.256687,27.309460 64.230873,23.954878 68.285431,22.295265 
	C83.044342,16.254139 97.869469,19.747152 113.693001,23.022060 
	C103.170830,28.790361 95.653694,36.240128 89.613914,45.168365 
	C87.681267,48.025269 85.271431,49.201424 81.952927,49.906868 
	C77.286652,50.898827 72.731941,52.587086 68.303139,54.401398 
	C67.227348,54.842110 66.829803,56.938454 66.120392,58.273514 
	C67.553322,58.242393 69.088142,58.532768 70.399261,58.117275 
	C73.753761,57.054237 77.008698,55.677006 80.303444,54.425430 
	C80.596283,54.939087 80.889122,55.452744 81.181961,55.966400 
	C76.770721,61.355114 72.503235,66.870789 67.896599,72.086937 
	C64.933632,75.441933 61.831280,78.905945 58.137627,81.321327 
	C54.058708,83.988640 49.394833,86.139801 44.686207,87.358047 
	C40.092361,88.546600 35.736393,86.732452 33.103626,82.371529 
	C30.568905,78.172981 31.242306,73.925690 34.009239,70.201691 
	C35.766083,67.837158 38.322304,66.083122 40.315723,63.871174 
	C41.392258,62.676624 42.039303,61.095013 42.880116,59.688026 
	C41.248795,59.207287 39.515099,58.099834 38.002666,58.346897 
	C27.718864,60.026772 19.338835,71.420387 20.134411,82.277779 
	C20.946505,93.360626 29.140686,100.789162 40.838963,101.159569 
	C51.017708,101.481873 59.733406,97.640602 66.180077,90.235245 
	C73.685646,81.613518 80.922676,72.532982 86.738037,62.738277 
	C91.147095,55.312183 96.103859,51.552353 104.700668,51.867348 
	C108.692894,52.013622 112.510422,51.292385 115.694016,54.681267 
	C116.470604,55.507942 118.465897,55.189747 119.900848,55.397945 
	C120.183708,54.779579 120.466568,54.161217 120.749428,53.542854 
	C119.269051,52.785797 117.788673,52.028744 116.062225,51.145851 
	C122.920876,46.827217 125.653259,42.870533 123.873146,39.231171 
	C122.996262,37.438408 120.061798,35.343719 118.286804,35.532543 
	C111.751617,36.227779 110.373497,41.619141 109.702904,47.275200 
	C105.447693,47.509670 101.428360,47.731144 97.409027,47.952618 
	C97.141586,47.514572 96.874153,47.076530 96.606712,46.638485 
	C100.887680,42.096531 104.885956,37.240757 109.507828,33.077244 
	C119.457680,24.114176 119.492798,24.685341 132.466690,27.619228 
	C143.770935,30.175549 155.265366,32.250435 166.789139,33.353806 
	C174.867508,34.127293 182.697281,31.419281 188.867340,25.719759 
	C190.320633,24.377317 190.579361,21.741686 191.387619,19.700966 
	C189.481308,19.354937 187.463028,18.419319 185.686478,18.756664 
	C172.142029,21.328604 158.523895,21.863323 144.883560,20.175707 
	C127.537918,18.029657 110.272888,15.202567 92.907043,13.259543 
	C81.323143,11.963448 69.937363,13.560734 59.410667,19.075308 
	C53.208179,22.324579 47.887566,26.629494 45.629814,33.530434 
	C43.796276,39.134743 43.714611,44.826450 48.173649,49.454414 
	C52.298767,53.735813 57.525585,54.370373 62.980259,52.719963 
	C72.001282,49.990486 77.225700,43.266712 80.695015,34.970024 
	C81.132538,33.923714 80.482841,32.422771 80.383026,31.540461 
	C74.953209,35.169777 69.961304,38.506390 64.181244,41.961521 
M252.820160,41.527069 
	C252.214737,42.078182 251.277069,42.522484 251.059784,43.198380 
	C249.949692,46.651329 248.883621,50.134800 248.152832,53.679882 
	C248.001648,54.413334 249.162720,55.805676 250.043365,56.246845 
	C250.819336,56.635567 252.501450,56.511482 252.999695,55.935684 
	C255.229492,53.358829 257.747437,50.792046 259.099487,47.749722 
	C261.249939,42.910782 258.896027,40.443958 252.820160,41.527069 
z"/>
<path fill="#050505" opacity="1.000000" stroke="none" 
	d="
M262.118744,104.523254 
	C266.104462,104.608833 270.090515,104.681122 274.075806,104.783127 
	C279.924957,104.932846 282.259277,107.214874 282.284271,112.948738 
	C282.324127,122.107063 282.334473,131.265930 282.277679,140.424103 
	C282.245117,145.673279 279.957855,148.013672 274.777222,148.309677 
	C273.615173,148.376083 272.446533,148.331497 271.280945,148.331497 
	C191.518753,148.332092 111.756569,148.332748 31.994387,148.331192 
	C22.359091,148.331009 20.743082,146.692856 20.739761,136.951279 
	C20.737209,129.457962 20.721956,121.964607 20.743618,114.471352 
	C20.765303,106.970100 22.980259,104.790215 30.638130,104.782661 
	C54.450123,104.759171 78.262138,104.758545 102.985977,104.753403 
	C145.666489,104.767899 187.435196,104.796516 229.203873,104.775696 
	C240.175522,104.770226 251.147125,104.611565 262.118744,104.523254 
M50.144901,134.197433 
	C44.707066,137.015945 40.063992,136.362244 36.722755,132.307724 
	C33.879551,128.857544 33.816196,123.724533 36.574886,120.325958 
	C40.193531,115.867958 45.298946,115.760582 53.231857,120.023514 
	C54.325378,119.124611 55.439243,118.208977 56.523533,117.317657 
	C50.906372,111.071953 42.194546,109.807190 35.845684,113.882484 
	C29.704557,117.824432 27.446539,125.416794 30.360550,132.325653 
	C33.262970,139.207031 40.913525,142.802551 48.617767,140.905945 
	C54.924278,139.353439 58.836529,133.699997 58.401775,126.471794 
	C53.838341,126.471794 49.256695,126.471794 44.416718,126.471794 
	C44.416718,128.058289 44.416718,129.471588 44.416718,131.330338 
	C46.368511,131.330338 48.195026,131.202362 49.974953,131.433365 
	C50.351643,131.482239 50.558010,132.843536 50.144901,134.197433 
M225.119186,116.956902 
	C227.356857,117.927284 229.594543,118.897675 232.204147,120.029350 
	C233.097656,119.080696 234.158981,117.953873 235.220337,116.826996 
	C228.534027,110.609245 219.742798,109.857315 213.550888,114.667572 
	C207.700439,119.212555 206.219467,127.319778 210.022858,133.980804 
	C213.601257,140.247772 221.723068,143.075851 228.729614,140.494583 
	C234.622284,138.323700 238.059998,132.328827 236.752747,126.421532 
	C232.323715,126.421532 227.884949,126.421532 223.226669,126.421532 
	C223.226669,128.069016 223.226669,129.501114 223.226669,131.017319 
	C225.700638,131.226196 228.027115,131.422607 230.656387,131.644592 
	C230.136200,132.710419 230.028488,133.262985 229.694305,133.564865 
	C226.108490,136.804016 222.049805,136.821915 218.167786,134.518600 
	C214.251404,132.194870 212.434799,128.536667 213.624863,123.885887 
	C214.818481,119.221207 218.209015,117.060860 225.119186,116.956902 
M142.051697,137.554047 
	C140.455750,134.517105 138.859818,131.480148 137.300858,128.513596 
	C142.339752,124.340508 143.557571,120.380928 141.265793,116.278694 
	C139.107452,112.415298 132.489105,111.063049 125.520279,113.032707 
	C125.520279,122.134140 125.520279,131.215607 125.520279,140.386993 
	C127.388794,140.386993 128.952057,140.386993 131.058655,140.386993 
	C131.058655,136.619125 131.058655,133.140121 131.058655,128.314514 
	C133.493683,132.797180 134.920334,136.206085 137.092163,139.044922 
	C137.988602,140.216705 140.484726,140.164688 142.253281,140.669281 
	C142.307343,139.858566 142.361389,139.047867 142.051697,137.554047 
M171.068909,134.846481 
	C173.564209,134.846008 176.100632,134.578308 178.538177,134.953278 
	C179.835388,135.152817 181.661026,136.224991 182.036057,137.318848 
	C183.250809,140.862167 185.361191,141.348663 188.820435,140.115585 
	C185.511993,131.464523 182.333542,122.933914 178.915573,114.500374 
	C178.499634,113.474098 176.833450,112.452751 175.677582,112.367653 
	C174.494690,112.280563 172.483521,113.045021 172.111588,113.957245 
	C168.578659,122.622299 165.317749,131.398270 162.028687,140.011139 
	C168.176147,142.922821 167.986710,137.238647 171.068909,134.846481 
M102.849365,135.693710 
	C100.232071,128.882690 97.731659,122.022346 94.896744,115.303139 
	C94.343987,113.993034 92.410477,112.336655 91.258835,112.440956 
	C89.787865,112.574173 87.987495,114.057434 87.182655,115.451607 
	C85.790985,117.862305 85.045631,120.648247 84.048309,123.284027 
	C81.920494,128.907532 79.804947,134.535706 77.684380,140.161957 
	C78.122345,140.601990 78.560318,141.042007 78.998283,141.482040 
	C80.674271,140.416977 83.395500,139.672501 83.838188,138.229172 
	C85.422585,133.063431 89.372643,135.287277 92.449120,134.870392 
	C95.229698,134.493591 97.454521,134.756561 98.555359,138.232849 
	C98.998169,139.631180 101.629356,140.336502 103.264565,141.357239 
	C103.593727,140.945328 103.922890,140.533432 104.252060,140.121521 
	C103.860428,138.899933 103.468803,137.678329 102.849365,135.693710 
M268.387756,140.892349 
	C270.173676,140.892349 271.959564,140.892349 274.128876,140.892349 
	C274.009735,138.823669 273.920990,137.283188 273.807159,135.306625 
	C270.332031,135.306625 267.275452,135.306625 264.275208,135.306625 
	C264.275208,132.594666 264.275208,130.363281 264.275208,127.740715 
	C267.680634,127.740715 270.764709,127.740715 273.869751,127.740715 
	C273.869751,125.885178 273.869751,124.436836 273.869751,122.660164 
	C270.545441,122.660164 267.438751,122.660164 264.178955,122.660164 
	C264.178955,120.895882 264.178955,119.461067 264.178955,117.614487 
	C267.479401,117.614487 270.566040,117.614487 273.757629,117.614487 
	C273.757629,115.652588 273.757629,114.105820 273.757629,112.572495 
	C268.543579,112.572495 263.667389,112.572495 258.733643,112.572495 
	C258.733643,122.147125 258.733643,131.366470 258.733643,140.892410 
	C261.846008,140.892410 264.647003,140.892410 268.387756,140.892349 
z"/>
<path fill="#0B0B0B" opacity="1.000000" stroke="none" 
	d="
M103.003647,101.882126 
	C98.955795,98.723892 94.907951,95.565659 90.607964,92.210693 
	C89.287384,93.301117 86.906776,95.266830 84.195602,97.505501 
	C82.973656,95.910606 82.018341,94.663719 81.886955,94.492226 
	C86.151421,87.458733 90.020996,81.195831 93.770828,74.862038 
	C98.597237,66.709801 105.387436,61.302464 114.745338,59.212040 
	C118.312675,58.415150 120.668320,59.079700 120.982597,63.455776 
	C118.318398,64.919853 115.035576,65.895668 112.967278,68.041901 
	C109.256996,71.891983 105.668663,76.125267 103.198433,80.814285 
	C101.458244,84.117546 101.773926,88.510841 105.610451,91.128906 
	C109.406555,93.719383 113.091255,92.233505 116.234444,89.834503 
	C123.911377,83.975189 126.295830,75.812408 124.531097,66.719505 
	C123.769066,62.793076 124.810936,60.868145 128.122131,59.977180 
	C132.063599,58.916626 132.110291,62.564026 133.039459,64.807808 
	C133.714386,66.437668 133.888596,68.274864 134.731613,71.975533 
	C136.944550,69.131058 138.237686,66.989319 139.989883,65.333290 
	C142.390518,63.064404 144.918060,60.761929 147.782516,59.184334 
	C155.268036,55.061684 160.030045,57.423149 161.657654,65.894844 
	C164.322083,63.830265 166.635498,61.041546 169.558868,60.048595 
	C172.568573,59.026321 176.451385,58.968052 179.410980,60.016136 
	C181.146027,60.630566 182.705826,64.197868 182.783051,66.489502 
	C182.916168,70.439774 180.626556,73.541794 176.345642,74.137924 
	C171.816772,74.768593 169.761261,72.115395 169.534531,67.529404 
	C169.056061,67.542755 168.577576,67.556099 168.099106,67.569450 
	C167.254318,70.058701 165.875610,72.508270 165.686966,75.046288 
	C165.386581,79.088219 168.818192,81.686852 172.661316,80.262405 
	C175.867355,79.074112 178.913132,77.184586 181.678711,75.132355 
	C187.548691,70.776466 192.844009,65.558281 199.008972,61.709114 
	C207.475708,56.422806 214.848129,58.556377 219.734222,66.809830 
	C224.642715,59.361046 229.800186,52.178619 234.225327,44.570248 
	C236.756149,40.218834 239.763031,38.379089 244.617966,39.159206 
	C245.913925,39.367451 247.271729,39.190697 249.548508,39.190697 
	C248.418732,41.173553 247.641068,42.689453 246.727463,44.118435 
	C237.848495,58.006207 228.939392,71.874718 220.062805,85.764000 
	C219.169479,87.161812 218.251328,88.594170 217.692291,90.136490 
	C217.351044,91.077980 217.328629,92.975479 217.770096,93.189125 
	C218.755936,93.666214 220.503937,93.858505 221.264938,93.278793 
	C224.031525,91.171219 226.728241,88.889221 229.074844,86.328064 
	C237.175674,77.486549 245.075912,68.461403 253.157455,59.601906 
	C254.684097,57.928337 256.507690,56.274158 258.533966,55.385818 
	C260.217407,54.647774 263.859070,54.451237 264.104401,55.050365 
	C265.068787,57.405506 266.284576,61.485527 265.156372,62.558407 
	C259.809387,67.643181 262.603912,71.160660 266.403992,74.953026 
	C270.556122,79.096756 272.242096,84.067406 270.641876,91.037048 
	C274.266235,88.392044 277.018188,86.383720 279.982941,84.220116 
	C282.837219,85.768425 282.694550,87.644470 280.765442,90.086243 
	C276.054321,96.049355 270.252502,100.232506 261.885132,101.805679 
	C257.253815,101.881798 253.304077,102.472603 249.642609,101.699005 
	C246.608582,101.057976 243.370041,99.340202 241.212387,97.131897 
	C238.713608,94.574432 239.387497,90.756134 242.194992,88.739449 
	C244.164169,87.324966 247.562775,86.444290 249.758392,87.130867 
	C253.359222,88.256844 252.204971,91.519699 251.040634,94.252357 
	C250.900620,94.580971 251.277496,95.129822 251.905334,97.172745 
	C254.284348,94.839241 257.009399,93.385078 257.707092,91.264046 
	C260.274872,83.457962 256.401550,77.032990 252.429794,69.994682 
	C247.859314,75.675606 244.211914,81.135345 239.637222,85.656914 
	C234.132401,91.097771 228.423492,96.829193 221.724457,100.426331 
	C214.887863,104.097343 210.799759,105.289116 205.996704,95.713852 
	C200.230072,98.497253 195.214401,104.174660 187.804459,101.262802 
	C180.254578,98.295959 179.841187,91.568390 179.893509,85.401772 
	C175.433472,86.293442 171.269470,87.887642 167.163895,87.749184 
	C162.300415,87.585167 160.447327,83.311775 159.534439,78.061050 
	C155.710419,84.022842 152.398773,89.176140 149.096985,94.335747 
	C144.061981,102.203796 143.847031,102.297760 133.957138,100.487000 
	C134.903839,98.829178 135.745987,97.261238 136.673660,95.745659 
	C141.279099,88.221596 145.983688,80.756592 150.470749,73.162895 
	C151.529953,71.370338 151.883835,69.161003 152.562180,67.143394 
	C152.002762,66.688217 151.443344,66.233040 150.883926,65.777863 
	C147.961380,67.682693 144.501907,69.096390 142.221878,71.588951 
	C136.503403,77.840462 131.348740,84.605309 125.911781,91.117386 
	C119.958580,98.247803 112.792435,102.876068 103.003647,101.882126 
M203.555099,89.139847 
	C208.151642,84.975197 212.128876,80.402100 212.195038,73.764824 
	C212.217316,71.530022 212.283524,68.116875 211.032364,67.344933 
	C209.449020,66.368027 205.688293,66.658287 204.362656,67.944206 
	C200.169601,72.011612 196.190857,76.493652 193.088684,81.419556 
	C191.215683,84.393646 189.530670,88.920891 193.226440,91.904404 
	C196.877533,94.851852 199.952545,91.407555 203.555099,89.139847 
M250.947998,94.482582 
	C250.110062,94.950523 249.272125,95.418472 248.434189,95.886414 
	C248.654999,96.224876 248.875809,96.563332 249.096619,96.901787 
	C249.914246,96.300583 250.731888,95.699379 250.947998,94.482582 
z"/>
<path fill="#0C0C0C" opacity="1.000000" stroke="none" 
	d="
M64.575317,41.902260 
	C69.961304,38.506390 74.953209,35.169777 80.383026,31.540461 
	C80.482841,32.422771 81.132538,33.923714 80.695015,34.970024 
	C77.225700,43.266712 72.001282,49.990486 62.980259,52.719963 
	C57.525585,54.370373 52.298767,53.735813 48.173649,49.454414 
	C43.714611,44.826450 43.796276,39.134743 45.629814,33.530434 
	C47.887566,26.629494 53.208179,22.324579 59.410667,19.075308 
	C69.937363,13.560734 81.323143,11.963448 92.907043,13.259543 
	C110.272888,15.202567 127.537918,18.029657 144.883560,20.175707 
	C158.523895,21.863323 172.142029,21.328604 185.686478,18.756664 
	C187.463028,18.419319 189.481308,19.354937 191.387619,19.700966 
	C190.579361,21.741686 190.320633,24.377317 188.867340,25.719759 
	C182.697281,31.419281 174.867508,34.127293 166.789139,33.353806 
	C155.265366,32.250435 143.770935,30.175549 132.466690,27.619228 
	C119.492798,24.685341 119.457680,24.114176 109.507828,33.077244 
	C104.885956,37.240757 100.887680,42.096531 96.606712,46.638485 
	C96.874153,47.076530 97.141586,47.514572 97.409027,47.952618 
	C101.428360,47.731144 105.447693,47.509670 109.702904,47.275200 
	C110.373497,41.619141 111.751617,36.227779 118.286804,35.532543 
	C120.061798,35.343719 122.996262,37.438408 123.873146,39.231171 
	C125.653259,42.870533 122.920876,46.827217 116.062225,51.145851 
	C117.788673,52.028744 119.269051,52.785797 120.749428,53.542854 
	C120.466568,54.161217 120.183708,54.779579 119.900848,55.397945 
	C118.465897,55.189747 116.470604,55.507942 115.694016,54.681267 
	C112.510422,51.292385 108.692894,52.013622 104.700668,51.867348 
	C96.103859,51.552353 91.147095,55.312183 86.738037,62.738277 
	C80.922676,72.532982 73.685646,81.613518 66.180077,90.235245 
	C59.733406,97.640602 51.017708,101.481873 40.838963,101.159569 
	C29.140686,100.789162 20.946505,93.360626 20.134411,82.277779 
	C19.338835,71.420387 27.718864,60.026772 38.002666,58.346897 
	C39.515099,58.099834 41.248795,59.207287 42.880116,59.688026 
	C42.039303,61.095013 41.392258,62.676624 40.315723,63.871174 
	C38.322304,66.083122 35.766083,67.837158 34.009239,70.201691 
	C31.242306,73.925690 30.568905,78.172981 33.103626,82.371529 
	C35.736393,86.732452 40.092361,88.546600 44.686207,87.358047 
	C49.394833,86.139801 54.058708,83.988640 58.137627,81.321327 
	C61.831280,78.905945 64.933632,75.441933 67.896599,72.086937 
	C72.503235,66.870789 76.770721,61.355114 81.181961,55.966400 
	C80.889122,55.452744 80.596283,54.939087 80.303444,54.425430 
	C77.008698,55.677006 73.753761,57.054237 70.399261,58.117275 
	C69.088142,58.532768 67.553322,58.242393 66.120392,58.273514 
	C66.829803,56.938454 67.227348,54.842110 68.303139,54.401398 
	C72.731941,52.587086 77.286652,50.898827 81.952927,49.906868 
	C85.271431,49.201424 87.681267,48.025269 89.613914,45.168365 
	C95.653694,36.240128 103.170830,28.790361 113.693001,23.022060 
	C97.869469,19.747152 83.044342,16.254139 68.285431,22.295265 
	C64.230873,23.954878 60.256687,27.309460 57.756218,30.929640 
	C53.601192,36.945278 56.774853,41.786877 64.575317,41.902260 
M118.653419,44.009766 
	C119.165756,42.469967 119.678101,40.930164 120.190437,39.390366 
	C119.419640,39.077301 118.648842,38.764240 117.878044,38.451176 
	C116.679131,40.659641 115.480217,42.868103 114.281303,45.076569 
	C114.733459,45.375118 115.185616,45.673672 115.637779,45.972221 
	C116.452957,45.498104 117.268135,45.023983 118.653419,44.009766 
z"/>
<path fill="#F8F8F8" opacity="1.000000" stroke="none" 
	d="
M103.002335,102.212463 
	C112.792435,102.876068 119.958580,98.247803 125.911781,91.117386 
	C131.348740,84.605309 136.503403,77.840462 142.221878,71.588951 
	C144.501907,69.096390 147.961380,67.682693 150.883926,65.777863 
	C151.443344,66.233040 152.002762,66.688217 152.562180,67.143394 
	C151.883835,69.161003 151.529953,71.370338 150.470749,73.162895 
	C145.983688,80.756592 141.279099,88.221596 136.673660,95.745659 
	C135.745987,97.261238 134.903839,98.829178 133.957138,100.487000 
	C143.847031,102.297760 144.061981,102.203796 149.096985,94.335747 
	C152.398773,89.176140 155.710419,84.022842 159.534439,78.061050 
	C160.447327,83.311775 162.300415,87.585167 167.163895,87.749184 
	C171.269470,87.887642 175.433472,86.293442 179.893509,85.401772 
	C179.841187,91.568390 180.254578,98.295959 187.804459,101.262802 
	C195.214401,104.174660 200.230072,98.497253 205.996704,95.713852 
	C210.799759,105.289116 214.887863,104.097343 221.724457,100.426331 
	C228.423492,96.829193 234.132401,91.097771 239.637222,85.656914 
	C244.211914,81.135345 247.859314,75.675606 252.429794,69.994682 
	C256.401550,77.032990 260.274872,83.457962 257.707092,91.264046 
	C257.009399,93.385078 254.284348,94.839241 251.905334,97.172745 
	C251.277496,95.129822 250.900620,94.580971 251.040634,94.252357 
	C252.204971,91.519699 253.359222,88.256844 249.758392,87.130867 
	C247.562775,86.444290 244.164169,87.324966 242.194992,88.739449 
	C239.387497,90.756134 238.713608,94.574432 241.212387,97.131897 
	C243.370041,99.340202 246.608582,101.057976 249.642609,101.699005 
	C253.304077,102.472603 257.253815,101.881798 261.539734,101.959137 
	C262.022064,102.589523 262.043396,103.142319 262.091736,104.109192 
	C251.147125,104.611565 240.175522,104.770226 229.203873,104.775696 
	C187.435196,104.796516 145.666489,104.767899 103.441162,104.641228 
	C102.990013,103.864059 102.995514,103.203430 103.002335,102.212463 
z"/>
<path fill="#121212" opacity="1.000000" stroke="none" 
	d="
M253.131073,41.321999 
	C258.896027,40.443958 261.249939,42.910782 259.099487,47.749722 
	C257.747437,50.792046 255.229492,53.358829 252.999695,55.935684 
	C252.501450,56.511482 250.819336,56.635567 250.043365,56.246845 
	C249.162720,55.805676 248.001648,54.413334 248.152832,53.679882 
	C248.883621,50.134800 249.949692,46.651329 251.059784,43.198380 
	C251.277069,42.522484 252.214737,42.078182 253.131073,41.321999 
z"/>
<path fill="#EAEAEA" opacity="1.000000" stroke="none" 
	d="
M50.493881,133.898773 
	C50.558010,132.843536 50.351643,131.482239 49.974953,131.433365 
	C48.195026,131.202362 46.368511,131.330338 44.416718,131.330338 
	C44.416718,129.471588 44.416718,128.058289 44.416718,126.471794 
	C49.256695,126.471794 53.838341,126.471794 58.401775,126.471794 
	C58.836529,133.699997 54.924278,139.353439 48.617767,140.905945 
	C40.913525,142.802551 33.262970,139.207031 30.360550,132.325653 
	C27.446539,125.416794 29.704557,117.824432 35.845684,113.882484 
	C42.194546,109.807190 50.906372,111.071953 56.523533,117.317657 
	C55.439243,118.208977 54.325378,119.124611 53.231857,120.023514 
	C45.298946,115.760582 40.193531,115.867958 36.574886,120.325958 
	C33.816196,123.724533 33.879551,128.857544 36.722755,132.307724 
	C40.063992,136.362244 44.707066,137.015945 50.493881,133.898773 
z"/>
<path fill="#ECECEC" opacity="1.000000" stroke="none" 
	d="
M224.706665,116.920837 
	C218.209015,117.060860 214.818481,119.221207 213.624863,123.885887 
	C212.434799,128.536667 214.251404,132.194870 218.167786,134.518600 
	C222.049805,136.821915 226.108490,136.804016 229.694305,133.564865 
	C230.028488,133.262985 230.136200,132.710419 230.656387,131.644592 
	C228.027115,131.422607 225.700638,131.226196 223.226669,131.017319 
	C223.226669,129.501114 223.226669,128.069016 223.226669,126.421532 
	C227.884949,126.421532 232.323715,126.421532 236.752747,126.421532 
	C238.059998,132.328827 234.622284,138.323700 228.729614,140.494583 
	C221.723068,143.075851 213.601257,140.247772 210.022858,133.980804 
	C206.219467,127.319778 207.700439,119.212555 213.550888,114.667572 
	C219.742798,109.857315 228.534027,110.609245 235.220337,116.826996 
	C234.158981,117.953873 233.097656,119.080696 232.204147,120.029350 
	C229.594543,118.897675 227.356857,117.927284 224.706665,116.920837 
z"/>
<path fill="#E7E7E7" opacity="1.000000" stroke="none" 
	d="
M142.233582,137.895599 
	C142.361389,139.047867 142.307343,139.858566 142.253281,140.669281 
	C140.484726,140.164688 137.988602,140.216705 137.092163,139.044922 
	C134.920334,136.206085 133.493683,132.797180 131.058655,128.314514 
	C131.058655,133.140121 131.058655,136.619125 131.058655,140.386993 
	C128.952057,140.386993 127.388794,140.386993 125.520279,140.386993 
	C125.520279,131.215607 125.520279,122.134140 125.520279,113.032707 
	C132.489105,111.063049 139.107452,112.415298 141.265793,116.278694 
	C143.557571,120.380928 142.339752,124.340508 137.300858,128.513596 
	C138.859818,131.480148 140.455750,134.517105 142.233582,137.895599 
M135.010574,123.055771 
	C135.636566,121.900826 136.262543,120.745888 136.888535,119.590942 
	C135.141663,118.800377 133.394791,118.009811 130.582886,116.737259 
	C131.481125,120.203911 129.064926,123.779694 135.010574,123.055771 
z"/>
<path fill="#EDEDED" opacity="1.000000" stroke="none" 
	d="
M170.642395,134.924469 
	C167.986710,137.238647 168.176147,142.922821 162.028687,140.011139 
	C165.317749,131.398270 168.578659,122.622299 172.111588,113.957245 
	C172.483521,113.045021 174.494690,112.280563 175.677582,112.367653 
	C176.833450,112.452751 178.499634,113.474098 178.915573,114.500374 
	C182.333542,122.933914 185.511993,131.464523 188.820435,140.115585 
	C185.361191,141.348663 183.250809,140.862167 182.036057,137.318848 
	C181.661026,136.224991 179.835388,135.152817 178.538177,134.953278 
	C176.100632,134.578308 173.564209,134.846008 170.642395,134.924469 
M173.023148,125.698883 
	C172.672791,126.903473 172.322418,128.108063 171.965103,129.336548 
	C174.508347,129.336548 176.664871,129.336548 179.281082,129.336548 
	C177.972107,126.034088 176.862534,123.234657 175.525177,119.860558 
	C174.594803,121.997597 173.943359,123.493950 173.023148,125.698883 
z"/>
<path fill="#ECECEC" opacity="1.000000" stroke="none" 
	d="
M102.963272,136.075226 
	C103.468803,137.678329 103.860428,138.899933 104.252060,140.121521 
	C103.922890,140.533432 103.593727,140.945328 103.264565,141.357239 
	C101.629356,140.336502 98.998169,139.631180 98.555359,138.232849 
	C97.454521,134.756561 95.229698,134.493591 92.449120,134.870392 
	C89.372643,135.287277 85.422585,133.063431 83.838188,138.229172 
	C83.395500,139.672501 80.674271,140.416977 78.998283,141.482040 
	C78.560318,141.042007 78.122345,140.601990 77.684380,140.161957 
	C79.804947,134.535706 81.920494,128.907532 84.048309,123.284027 
	C85.045631,120.648247 85.790985,117.862305 87.182655,115.451607 
	C87.987495,114.057434 89.787865,112.574173 91.258835,112.440956 
	C92.410477,112.336655 94.343987,113.993034 94.896744,115.303139 
	C97.731659,122.022346 100.232071,128.882690 102.963272,136.075226 
M91.489685,120.835815 
	C90.132393,123.568321 88.775101,126.300819 87.190010,129.491913 
	C90.397423,129.491913 92.457245,129.491913 95.051262,129.491913 
	C93.923927,126.576157 92.936142,124.021339 91.489685,120.835815 
z"/>
<path fill="#E2E2E2" opacity="1.000000" stroke="none" 
	d="
M267.917847,140.892380 
	C264.647003,140.892410 261.846008,140.892410 258.733643,140.892410 
	C258.733643,131.366470 258.733643,122.147125 258.733643,112.572495 
	C263.667389,112.572495 268.543579,112.572495 273.757629,112.572495 
	C273.757629,114.105820 273.757629,115.652588 273.757629,117.614487 
	C270.566040,117.614487 267.479401,117.614487 264.178955,117.614487 
	C264.178955,119.461067 264.178955,120.895882 264.178955,122.660164 
	C267.438751,122.660164 270.545441,122.660164 273.869751,122.660164 
	C273.869751,124.436836 273.869751,125.885178 273.869751,127.740715 
	C270.764709,127.740715 267.680634,127.740715 264.275208,127.740715 
	C264.275208,130.363281 264.275208,132.594666 264.275208,135.306625 
	C267.275452,135.306625 270.332031,135.306625 273.807159,135.306625 
	C273.920990,137.283188 274.009735,138.823669 274.128876,140.892349 
	C271.959564,140.892349 270.173676,140.892349 267.917847,140.892380 
z"/>
<path fill="#F6F6F6" opacity="1.000000" stroke="none" 
	d="
M203.276779,89.376015 
	C199.952545,91.407555 196.877533,94.851852 193.226440,91.904404 
	C189.530670,88.920891 191.215683,84.393646 193.088684,81.419556 
	C196.190857,76.493652 200.169601,72.011612 204.362656,67.944206 
	C205.688293,66.658287 209.449020,66.368027 211.032364,67.344933 
	C212.283524,68.116875 212.217316,71.530022 212.195038,73.764824 
	C212.128876,80.402100 208.151642,84.975197 203.276779,89.376015 
z"/>
<path fill="#F2F2F2" opacity="1.000000" stroke="none" 
	d="
M251.248749,94.790375 
	C250.731888,95.699379 249.914246,96.300583 249.096619,96.901787 
	C248.875809,96.563332 248.654999,96.224876 248.434189,95.886414 
	C249.272125,95.418472 250.110062,94.950523 251.248749,94.790375 
z"/>
<path fill="#DADADA" opacity="1.000000" stroke="none" 
	d="
M118.368362,44.279816 
	C117.268135,45.023983 116.452957,45.498104 115.637779,45.972221 
	C115.185616,45.673672 114.733459,45.375118 114.281303,45.076569 
	C115.480217,42.868103 116.679131,40.659641 117.878044,38.451176 
	C118.648842,38.764240 119.419640,39.077301 120.190437,39.390366 
	C119.678101,40.930164 119.165756,42.469967 118.368362,44.279816 
z"/>
<path fill="#0C0C0C" opacity="1.000000" stroke="none" 
	d="
M134.572266,123.147278 
	C129.064926,123.779694 131.481125,120.203911 130.582886,116.737259 
	C133.394791,118.009811 135.141663,118.800377 136.888535,119.590942 
	C136.262543,120.745888 135.636566,121.900826 134.572266,123.147278 
z"/>
<path fill="#2A2A2A" opacity="1.000000" stroke="none" 
	d="
M173.157532,125.344589 
	C173.943359,123.493950 174.594803,121.997597 175.525177,119.860558 
	C176.862534,123.234657 177.972107,126.034088 179.281082,129.336548 
	C176.664871,129.336548 174.508347,129.336548 171.965103,129.336548 
	C172.322418,128.108063 172.672791,126.903473 173.157532,125.344589 
z"/>
<path fill="#282828" opacity="1.000000" stroke="none" 
	d="
M91.719025,121.151169 
	C92.936142,124.021339 93.923927,126.576157 95.051262,129.491913 
	C92.457245,129.491913 90.397423,129.491913 87.190010,129.491913 
	C88.775101,126.300819 90.132393,123.568321 91.719025,121.151169 
z"/>
</svg>